<?xml version="1.0" encoding="utf-8" standalone="yes"?>
<!DOCTYPE svg PUBLIC "-//W3C//DTD SVG 1.1//EN" "http://www.w3.org/Graphics/SVG/1.1/DTD/svg11.dtd">
<svg width="626" height="674" viewBox="0 0 626 674" style="fill:none;stroke:none;fill-rule:evenodd;clip-rule:evenodd;stroke-linecap:round;stroke-linejoin:round;stroke-miterlimit:1.5;" version="1.1" xmlns="http://www.w3.org/2000/svg" xmlns:xlink="http://www.w3.org/1999/xlink"><style id="fontImports">@import url("https://fonts.googleapis.com/css2?family=Roboto:wght@400;700&amp;display=block");</style><g id="items" style="isolation: isolate"><g id="blend" style="mix-blend-mode:normal"><g id="g-root-ro_1lvjcuzsc6cr0-fill" data-item-order="-21600" transform="translate(231, 252)"><g id="ro_1lvjcuzsc6cr0-fill" stroke="none" fill="#f5f5f5"><g><path d="M 34 10L 130 10C 130 10 154 10 154 34L 154 136C 154 136 154 160 130 160L 34 160C 34 160 10 160 10 136L 10 34C 10 34 10 10 34 10"></path></g></g></g><g id="g-root-ro_v490ijscj0uj-fill" data-item-order="-10368" transform="translate(351, 489)"><g id="ro_v490ijscj0uj-fill" stroke="none" fill="#f4ffdc"><g><path d="M 22 10L 190 10C 190 10 202 10 202 22L 202 52C 202 52 202 64 190 64L 22 64C 22 64 10 64 10 52L 10 22C 10 22 10 10 22 10"></path></g></g></g><g id="g-root-ro_1upb10bsc4zk1-fill" data-item-order="-7776" transform="translate(39, 339)"><g id="ro_1upb10bsc4zk1-fill" stroke="none" fill="#f3f0ff"><g><path d="M 22 10L 142 10C 142 10 154 10 154 22L 154 52C 154 52 154 64 142 64L 22 64C 22 64 10 64 10 52L 10 22C 10 22 10 10 22 10"></path></g></g></g><g id="g-root-ro_1qbcy57sc4yks-fill" data-item-order="-7776" transform="translate(111, 489)"><g id="ro_1qbcy57sc4yks-fill" stroke="none" fill="#e3fff2"><g><path d="M 22 10L 142 10C 142 10 154 10 154 22L 154 52C 154 52 154 64 142 64L 22 64C 22 64 10 64 10 52L 10 22C 10 22 10 10 22 10"></path></g></g></g><g id="g-root-ro_909ujsc4ydr-fill" data-item-order="-7128" transform="translate(123, 39)"><g id="ro_909ujsc4ydr-fill" stroke="none" fill="#faf0ff"><g><path d="M 22 10L 130 10C 130 10 142 10 142 22L 142 52C 142 52 142 64 130 64L 22 64C 22 64 10 64 10 52L 10 22C 10 22 10 10 22 10"></path></g></g></g><g id="g-root-ro_qofie3scalfn-fill" data-item-order="-6480" transform="translate(423, 339)"><g id="ro_qofie3scalfn-fill" stroke="none" fill="#fffbda"><g><path d="M 22 10L 118 10C 118 10 130 10 130 22L 130 52C 130 52 130 64 118 64L 22 64C 22 64 10 64 10 52L 10 22C 10 22 10 10 22 10"></path></g></g></g><g id="g-root-ro_1hclhazsc95hh-fill" data-item-order="-6480" transform="translate(423, 189)"><g id="ro_1hclhazsc95hh-fill" stroke="none" fill="#faf0ff"><g><path d="M 22 10L 118 10C 118 10 130 10 130 22L 130 52C 130 52 130 64 118 64L 22 64C 22 64 10 64 10 52L 10 22C 10 22 10 10 22 10"></path></g></g></g><g id="g-root-ro_906orscon4f-fill" data-item-order="-5832" transform="translate(351, 39)"><g id="ro_906orscon4f-fill" stroke="none" fill="#e8f9ff"><g><path d="M 22 10L 106 10C 106 10 118 10 118 22L 118 52C 118 52 118 64 106 64L 22 64C 22 64 10 64 10 52L 10 22C 10 22 10 10 22 10"></path></g></g></g><g id="g-root-ro_4l2xgbsc3m6m-fill" data-item-order="-5832" transform="translate(75, 189)"><g id="ro_4l2xgbsc3m6m-fill" stroke="none" fill="#fff2e5"><g><path d="M 22 10L 106 10C 106 10 118 10 118 22L 118 52C 118 52 118 64 106 64L 22 64C 22 64 10 64 10 52L 10 22C 10 22 10 10 22 10"></path></g></g></g><g id="g-root-tx_knackigk_zs6orfscooi4-fill" data-item-order="0" transform="translate(99, 105)"><g id="tx_knackigk_zs6orfscooi4-fill" stroke="none" fill="#484848"><g><text style="font: 20px Roboto, sans-serif; white-space: pre;" font-size="20px" font-family="Roboto, sans-serif"><tspan x="12.58" y="34" dominant-baseline="ideographic">Knackigkeit</tspan></text></g></g></g><g id="g-root-cu_m7d597sc6ebq-fill" data-item-order="0" transform="translate(213, 93)"></g><g id="g-root-cu_m7d597sc6ebt-fill" data-item-order="0" transform="translate(213, 93)"></g><g id="g-root-tx_schrfe_18ntp0bsconpc-fill" data-item-order="0" transform="translate(135, 555)"><g id="tx_schrfe_18ntp0bsconpc-fill" stroke="none" fill="#484848"><g><text style="font: 20px Roboto, sans-serif; white-space: pre;" font-size="20px" font-family="Roboto, sans-serif"><tspan x="11.77" y="34" dominant-baseline="ideographic">Schärfe</tspan></text></g></g></g><g id="g-root-cu_v305i3sc6cr0-fill" data-item-order="0" transform="translate(213, 543)"></g><g id="g-root-cu_hrjn4rsc6f43-fill" data-item-order="0" transform="translate(375, 93)"></g><g id="g-root-cu_hrjn4rsc6f46-fill" data-item-order="0" transform="translate(375, 93)"></g><g id="g-root-cu_qn6ndnsc6djb-fill" data-item-order="0" transform="translate(213, 543)"></g><g id="g-root-tx_knackigk_1hjgp97scom4t-fill" data-item-order="0" transform="translate(471, 441)"><g id="tx_knackigk_1hjgp97scom4t-fill" stroke="none" fill="#484848"><g><text style="font: 20px Roboto, sans-serif; white-space: pre;" font-size="20px" font-family="Roboto, sans-serif"><tspan x="12.58" y="34" dominant-baseline="ideographic">Knackigkeit</tspan></text></g></g></g><g id="g-root-tx_protein_m7d597sc3kem-fill" data-item-order="0" transform="translate(399, 105)"><g id="tx_protein_m7d597sc3kem-fill" stroke="none" fill="#484848"><g><text style="font: 20px Roboto, sans-serif; white-space: pre;" font-size="20px" font-family="Roboto, sans-serif"><tspan x="14.19" y="34" dominant-baseline="ideographic">Protein</tspan></text></g></g></g><g id="g-root-tx_frische_v305i3sc3jlx-fill" data-item-order="0" transform="translate(135, 141)"><g id="tx_frische_v305i3sc3jlx-fill" stroke="none" fill="#484848"><g><text style="font: 20px Roboto, sans-serif; white-space: pre;" font-size="20px" font-family="Roboto, sans-serif"><tspan x="13.59" y="34" dominant-baseline="ideographic">Frische</tspan></text></g></g></g><g id="g-root-tx_geschmac_1d3n74rscomx3-fill" data-item-order="0" transform="translate(15, 441)"><g id="tx_geschmac_1d3n74rscomx3-fill" stroke="none" fill="#484848"><g><text style="font: 20px Roboto, sans-serif; white-space: pre;" font-size="20px" font-family="Roboto, sans-serif"><tspan x="17.48" y="34" dominant-baseline="ideographic">Geschmack</tspan></text></g></g></g><g id="g-root-tx_frische_1hjgp97scom4s-fill" data-item-order="0" transform="translate(471, 405)"><g id="tx_frische_1hjgp97scom4s-fill" stroke="none" fill="#484848"><g><text style="font: 20px Roboto, sans-serif; white-space: pre;" font-size="20px" font-family="Roboto, sans-serif"><tspan x="13.59" y="34" dominant-baseline="ideographic">Frische</tspan></text></g></g></g><g id="g-root-tx_unten_1uuaqjfsconpl-fill" data-item-order="0" transform="translate(75, 291)"><g id="tx_unten_1uuaqjfsconpl-fill" stroke="none" fill="#484848"><g><text style="font: 20px Roboto, sans-serif; white-space: pre;" font-size="20px" font-family="Roboto, sans-serif"><tspan x="13.91" y="34" dominant-baseline="ideographic">Unten</tspan></text></g></g></g><g id="g-root-cu_1lyntgbsc50jx-fill" data-item-order="0" transform="translate(327, 66)"></g><g id="g-root-cu_qn6ndnsc6djd-fill" data-item-order="0" transform="translate(375, 543)"></g><g id="g-root-cu_zs6rx7sc50jx-fill" data-item-order="0" transform="translate(447, 393)"></g><g id="g-root-cu_18nts63sc4zr6-fill" data-item-order="0" transform="translate(447, 393)"></g><g id="g-root-cu_1lyntgbsc50jr-fill" data-item-order="0" transform="translate(327, 402)"></g><g id="g-root-cu_1uuatp7sc4yyw-fill" data-item-order="0" transform="translate(183, 216)"></g><g id="g-root-cu_1lyntgbsc50jo-fill" data-item-order="0" transform="translate(255, 402)"></g><g id="g-root-cu_1qehbkrsc4zr7-fill" data-item-order="0" transform="translate(375, 216)"></g><g id="g-root-cu_v305i3sc6cqy-fill" data-item-order="0" transform="translate(141, 393)"></g><g id="g-root-cu_zs6rx7sc50jz-fill" data-item-order="0" transform="translate(141, 393)"></g><g id="g-root-tx_oben_4otot7scon40-fill" data-item-order="0" transform="translate(75, 255)"><g id="tx_oben_4otot7scon40-fill" stroke="none" fill="#484848"><g><text style="font: 20px Roboto, sans-serif; white-space: pre;" font-size="20px" font-family="Roboto, sans-serif"><tspan x="16.7" y="34" dominant-baseline="ideographic">Oben</tspan></text></g></g></g><g id="g-root-cu_1hjgsezsc4y6g-fill" data-item-order="0" transform="translate(141, 243)"></g><g id="g-root-cu_1d3naajsc4yyr-fill" data-item-order="0" transform="translate(141, 243)"></g><g id="g-root-tx_saftigke_1d3n74rscomx2-fill" data-item-order="0" transform="translate(39, 405)"><g id="tx_saftigke_1d3n74rscomx2-fill" stroke="none" fill="#484848"><g><text style="font: 20px Roboto, sans-serif; white-space: pre;" font-size="20px" font-family="Roboto, sans-serif"><tspan x="15.89" y="34" dominant-baseline="ideographic">Saftigkeit</tspan></text></g></g></g><g id="g-root-cu_1lyntgbsc50ju-fill" data-item-order="0" transform="translate(255, 66)"></g><g id="g-root-tx_geschmac_zs6orfscooi3-fill" data-item-order="0" transform="translate(399, 591)"><g id="tx_geschmac_zs6orfscooi3-fill" stroke="none" fill="#484848"><g><text style="font: 20px Roboto, sans-serif; white-space: pre;" font-size="20px" font-family="Roboto, sans-serif"><tspan x="17.48" y="34" dominant-baseline="ideographic">Geschmack</tspan></text></g></g></g><g id="g-root-cu_1qehbkrsc4zra-fill" data-item-order="0" transform="translate(375, 352)"></g><g id="g-root-cu_1qehbkrsc4zrd-fill" data-item-order="0" transform="translate(183, 352)"></g><g id="g-root-cu_1480a1nsc4zrh-fill" data-item-order="0" transform="translate(447, 243)"></g><g id="g-root-cu_18nts63sc4zr4-fill" data-item-order="0" transform="translate(447, 243)"></g><g id="g-root-cu_m7d597sc6ebo-fill" data-item-order="0" transform="translate(375, 543)"></g><g id="g-root-tx_geschmac_1uuaqjfsconpm-fill" data-item-order="0" transform="translate(471, 255)"><g id="tx_geschmac_1uuaqjfsconpm-fill" stroke="none" fill="#484848"><g><text style="font: 20px Roboto, sans-serif; white-space: pre;" font-size="20px" font-family="Roboto, sans-serif"><tspan x="17.48" y="34" dominant-baseline="ideographic">Geschmack</tspan></text></g></g></g><g id="g-root-tx_feuchtig_zs6orfscooi2-fill" data-item-order="0" transform="translate(399, 555)"><g id="tx_feuchtig_zs6orfscooi2-fill" stroke="none" fill="#484848"><g><text style="font: 20px Roboto, sans-serif; white-space: pre;" font-size="20px" font-family="Roboto, sans-serif"><tspan x="15.75" y="34" dominant-baseline="ideographic">Feuchtigkeit</tspan></text></g></g></g><g id="g-root-tx_textur_1qeh8ezscoohv-fill" data-item-order="0" transform="translate(471, 291)"><g id="tx_textur_1qeh8ezscoohv-fill" stroke="none" fill="#484848"><g><text style="font: 20px Roboto, sans-serif; white-space: pre;" font-size="20px" font-family="Roboto, sans-serif"><tspan x="12.09" y="34" dominant-baseline="ideographic">Textur</tspan></text></g></g></g><g id="g-root-tx_wrze_18ntp0bsconpd-fill" data-item-order="0" transform="translate(147, 591)"><g id="tx_wrze_18ntp0bsconpd-fill" stroke="none" fill="#484848"><g><text style="font: 20px Roboto, sans-serif; white-space: pre;" font-size="20px" font-family="Roboto, sans-serif"><tspan x="12.15" y="34" dominant-baseline="ideographic">Würze</tspan></text></g></g></g><g id="g-root-tx_herzhaft_m7d597sc3ken-fill" data-item-order="0" transform="translate(399, 141)"><g id="tx_herzhaft_m7d597sc3ken-fill" stroke="none" fill="#484848"><g><text style="font: 20px Roboto, sans-serif; white-space: pre;" font-size="20px" font-family="Roboto, sans-serif"><tspan x="13.55" y="34" dominant-baseline="ideographic">Herzhaftigkeit</tspan></text></g></g></g><g id="g-root-tx_whopperb_1uqjw0rsc6f42-fill" data-item-order="1000000000" transform="translate(255, 330)"><g id="tx_whopperb_1uqjw0rsc6f42-fill" stroke="none" fill="#484848"><g><text style="font: 20px Roboto, sans-serif; white-space: pre;" font-size="20px" font-family="Roboto, sans-serif"><tspan x="15.53" y="34" dominant-baseline="ideographic">Whopper </tspan><tspan x="26.2" y="58" dominant-baseline="ideographic">Burger</tspan></text></g></g></g><g id="g-root-burg_1uqjw0rsc6f43-fill" data-item-order="1000000000" transform="translate(279, 276)"></g><g id="g-root-tx_tomaten_4jtza3sc4y6n-fill" data-item-order="1000000000" transform="translate(51, 354)"><g id="tx_tomaten_4jtza3sc4y6n-fill" stroke="none" fill="#7f64ea"><g><text style="font: 20px Roboto, sans-serif; white-space: pre;" font-size="20px" font-family="Roboto, sans-serif"><tspan x="12.52" y="34" dominant-baseline="ideographic">Tomaten</tspan></text></g></g></g><g id="g-root-toma_40h5nsc4yyw-fill" data-item-order="1000000000" transform="translate(141, 351)"></g><g id="g-root-rock_qofie3scalfm-fill" data-item-order="1000000000" transform="translate(435, 351)"></g><g id="g-root-tx_salat_v490ijscaknd-fill" data-item-order="1000000000" transform="translate(471, 354)"><g id="tx_salat_v490ijscaknd-fill" stroke="none" fill="#e0cb15"><g><text style="font: 20px Roboto, sans-serif; white-space: pre;" font-size="20px" font-family="Roboto, sans-serif"><tspan x="17.49" y="34" dominant-baseline="ideographic">Salat</tspan></text></g></g></g><g id="g-root-tx_mayo_1lrsicbsc97uz-fill" data-item-order="1000000000" transform="translate(471, 204)"><g id="tx_mayo_1lrsicbsc97uz-fill" stroke="none" fill="#ba5de5"><g><text style="font: 20px Roboto, sans-serif; white-space: pre;" font-size="20px" font-family="Roboto, sans-serif"><tspan x="15.54" y="34" dominant-baseline="ideographic">Mayo</tspan></text></g></g></g><g id="g-root-1_1lrsicbsc97v0-fill" data-item-order="1000000000" transform="translate(435, 201)"></g><g id="g-root-buns_dgpxp7sc3ldx-fill" data-item-order="1000000000" transform="translate(141, 201)"></g><g id="g-root-tx_bun_hwjftnsc3klo-fill" data-item-order="1000000000" transform="translate(87, 204)"><g id="tx_bun_hwjftnsc3klo-fill" stroke="none" fill="#de8431"><g><text style="font: 20px Roboto, sans-serif; white-space: pre;" font-size="20px" font-family="Roboto, sans-serif"><tspan x="16.74" y="34" dominant-baseline="ideographic">Bun</tspan></text></g></g></g><g id="g-root-tx_zwiebeln_hwjftnsc4yru-fill" data-item-order="1000000000" transform="translate(123, 504)"><g id="tx_zwiebeln_hwjftnsc4yru-fill" stroke="none" fill="#3cc583"><g><text style="font: 20px Roboto, sans-serif; white-space: pre;" font-size="20px" font-family="Roboto, sans-serif"><tspan x="12.05" y="34" dominant-baseline="ideographic">Zwiebeln</tspan></text></g></g></g><g id="g-root-1_4l2xgbsc50cr-fill" data-item-order="1000000000" transform="translate(213, 501)"></g><g id="g-root-pizz_13zw0rfscj01u-fill" data-item-order="1000000000" transform="translate(363, 501)"></g><g id="g-root-tx_tomatens_13zw0rfscj01t-fill" data-item-order="1000000000" transform="translate(399, 504)"><g id="tx_tomatens_13zw0rfscj01t-fill" stroke="none" fill="#92bd39"><g><text style="font: 20px Roboto, sans-serif; white-space: pre;" font-size="20px" font-family="Roboto, sans-serif"><tspan x="14.42" y="34" dominant-baseline="ideographic">Tomatensoße</tspan></text></g></g></g><g id="g-root-tx_beef_dju7yzscoop9-fill" data-item-order="1000000000" transform="translate(399, 54)"><g id="tx_beef_dju7yzscoop9-fill" stroke="none" fill="#1eabda"><g><text style="font: 20px Roboto, sans-serif; white-space: pre;" font-size="20px" font-family="Roboto, sans-serif"><tspan x="13.7" y="34" dominant-baseline="ideographic">Beef</tspan></text></g></g></g><g id="g-root-meat_94n6xnscombq-fill" data-item-order="1000000000" transform="translate(363, 51)"></g><g id="g-root-24px_940t0bsc50qu-fill" data-item-order="1000000000" transform="translate(213, 51)"></g><g id="g-root-tx_gurken_djub4rsc4zyl-fill" data-item-order="1000000000" transform="translate(135, 54)"><g id="tx_gurken_djub4rsc4zyl-fill" stroke="none" fill="#ba5de5"><g><text style="font: 20px Roboto, sans-serif; white-space: pre;" font-size="20px" font-family="Roboto, sans-serif"><tspan x="14.5" y="34" dominant-baseline="ideographic">Gurken</tspan></text></g></g></g><g id="g-root-ro_1lvjcuzsc6cr0-stroke" data-item-order="-21600" transform="translate(231, 252)"><g id="ro_1lvjcuzsc6cr0-stroke" fill="none" stroke-linecap="round" stroke-linejoin="round" stroke-miterlimit="4" stroke="#484848" stroke-width="2"><g><path d="M 34 10L 130 10C 130 10 154 10 154 34L 154 136C 154 136 154 160 130 160L 34 160C 34 160 10 160 10 136L 10 34C 10 34 10 10 34 10"></path></g></g></g><g id="g-root-ro_v490ijscj0uj-stroke" data-item-order="-10368" transform="translate(351, 489)"><g id="ro_v490ijscj0uj-stroke" fill="none" stroke-linecap="round" stroke-linejoin="round" stroke-miterlimit="4" stroke="#92bd39" stroke-width="2"><g><path d="M 22 10L 190 10C 190 10 202 10 202 22L 202 52C 202 52 202 64 190 64L 22 64C 22 64 10 64 10 52L 10 22C 10 22 10 10 22 10"></path></g></g></g><g id="g-root-ro_1upb10bsc4zk1-stroke" data-item-order="-7776" transform="translate(39, 339)"><g id="ro_1upb10bsc4zk1-stroke" fill="none" stroke-linecap="round" stroke-linejoin="round" stroke-miterlimit="4" stroke="#7f64ea" stroke-width="2"><g><path d="M 22 10L 142 10C 142 10 154 10 154 22L 154 52C 154 52 154 64 142 64L 22 64C 22 64 10 64 10 52L 10 22C 10 22 10 10 22 10"></path></g></g></g><g id="g-root-ro_1qbcy57sc4yks-stroke" data-item-order="-7776" transform="translate(111, 489)"><g id="ro_1qbcy57sc4yks-stroke" fill="none" stroke-linecap="round" stroke-linejoin="round" stroke-miterlimit="4" stroke="#3cc583" stroke-width="2"><g><path d="M 22 10L 142 10C 142 10 154 10 154 22L 154 52C 154 52 154 64 142 64L 22 64C 22 64 10 64 10 52L 10 22C 10 22 10 10 22 10"></path></g></g></g><g id="g-root-ro_909ujsc4ydr-stroke" data-item-order="-7128" transform="translate(123, 39)"><g id="ro_909ujsc4ydr-stroke" fill="none" stroke-linecap="round" stroke-linejoin="round" stroke-miterlimit="4" stroke="#ba5de5" stroke-width="2"><g><path d="M 22 10L 130 10C 130 10 142 10 142 22L 142 52C 142 52 142 64 130 64L 22 64C 22 64 10 64 10 52L 10 22C 10 22 10 10 22 10"></path></g></g></g><g id="g-root-ro_qofie3scalfn-stroke" data-item-order="-6480" transform="translate(423, 339)"><g id="ro_qofie3scalfn-stroke" fill="none" stroke-linecap="round" stroke-linejoin="round" stroke-miterlimit="4" stroke="#e0cb15" stroke-width="2"><g><path d="M 22 10L 118 10C 118 10 130 10 130 22L 130 52C 130 52 130 64 118 64L 22 64C 22 64 10 64 10 52L 10 22C 10 22 10 10 22 10"></path></g></g></g><g id="g-root-ro_1hclhazsc95hh-stroke" data-item-order="-6480" transform="translate(423, 189)"><g id="ro_1hclhazsc95hh-stroke" fill="none" stroke-linecap="round" stroke-linejoin="round" stroke-miterlimit="4" stroke="#ba5de5" stroke-width="2"><g><path d="M 22 10L 118 10C 118 10 130 10 130 22L 130 52C 130 52 130 64 118 64L 22 64C 22 64 10 64 10 52L 10 22C 10 22 10 10 22 10"></path></g></g></g><g id="g-root-ro_906orscon4f-stroke" data-item-order="-5832" transform="translate(351, 39)"><g id="ro_906orscon4f-stroke" fill="none" stroke-linecap="round" stroke-linejoin="round" stroke-miterlimit="4" stroke="#1eabda" stroke-width="2"><g><path d="M 22 10L 106 10C 106 10 118 10 118 22L 118 52C 118 52 118 64 106 64L 22 64C 22 64 10 64 10 52L 10 22C 10 22 10 10 22 10"></path></g></g></g><g id="g-root-ro_4l2xgbsc3m6m-stroke" data-item-order="-5832" transform="translate(75, 189)"><g id="ro_4l2xgbsc3m6m-stroke" fill="none" stroke-linecap="round" stroke-linejoin="round" stroke-miterlimit="4" stroke="#de8431" stroke-width="2"><g><path d="M 22 10L 106 10C 106 10 118 10 118 22L 118 52C 118 52 118 64 106 64L 22 64C 22 64 10 64 10 52L 10 22C 10 22 10 10 22 10"></path></g></g></g><g id="g-root-tx_knackigk_zs6orfscooi4-stroke" data-item-order="0" transform="translate(99, 105)"></g><g id="g-root-cu_m7d597sc6ebq-stroke" data-item-order="0" transform="translate(213, 93)"><g id="cu_m7d597sc6ebq-stroke" fill="none" stroke-linecap="round" stroke-linejoin="round" stroke-miterlimit="4" stroke="#969696" stroke-width="2" stroke-dasharray="5.0, 7.0"><g><path d="M 28 10L 28 22L 28 34L 19 34L 10 34"></path></g></g></g><g id="g-root-cu_m7d597sc6ebt-stroke" data-item-order="0" transform="translate(213, 93)"><g id="cu_m7d597sc6ebt-stroke" fill="none" stroke-linecap="round" stroke-linejoin="round" stroke-miterlimit="4" stroke="#969696" stroke-width="2" stroke-dasharray="5.0, 7.0"><g><path d="M 28 10L 28 17.5L 28 58C 27.999999 64.627415 22.627416 69.999998 16 69.999998L 15.9 70L 10 70"></path></g></g></g><g id="g-root-tx_schrfe_18ntp0bsconpc-stroke" data-item-order="0" transform="translate(135, 555)"></g><g id="g-root-cu_v305i3sc6cr0-stroke" data-item-order="0" transform="translate(213, 543)"><g id="cu_v305i3sc6cr0-stroke" fill="none" stroke-linecap="round" stroke-linejoin="round" stroke-miterlimit="4" stroke="#969696" stroke-width="2" stroke-dasharray="5.0, 7.0"><g><path d="M 28 10L 28 22L 28 34L 19 34L 10 34"></path></g></g></g><g id="g-root-cu_hrjn4rsc6f43-stroke" data-item-order="0" transform="translate(375, 93)"><g id="cu_hrjn4rsc6f43-stroke" fill="none" stroke-linecap="round" stroke-linejoin="round" stroke-miterlimit="4" stroke="#969696" stroke-width="2" stroke-dasharray="5.0, 7.0"><g><path d="M 10 10L 10 22L 10 34L 19 34L 28 34"></path></g></g></g><g id="g-root-cu_hrjn4rsc6f46-stroke" data-item-order="0" transform="translate(375, 93)"><g id="cu_hrjn4rsc6f46-stroke" fill="none" stroke-linecap="round" stroke-linejoin="round" stroke-miterlimit="4" stroke="#969696" stroke-width="2" stroke-dasharray="5.0, 7.0"><g><path d="M 10 10L 10 17.5L 10 58C 10.000002 64.627417 15.372585 70 22.000002 69.999999L 22.1 70L 28 70"></path></g></g></g><g id="g-root-cu_qn6ndnsc6djb-stroke" data-item-order="0" transform="translate(213, 543)"><g id="cu_qn6ndnsc6djb-stroke" fill="none" stroke-linecap="round" stroke-linejoin="round" stroke-miterlimit="4" stroke="#969696" stroke-width="2" stroke-dasharray="5.0, 7.0"><g><path d="M 28 10L 28 17.5L 28 58C 27.999999 64.627415 22.627416 69.999998 16 69.999998L 15.9 70L 10 70"></path></g></g></g><g id="g-root-tx_knackigk_1hjgp97scom4t-stroke" data-item-order="0" transform="translate(471, 441)"></g><g id="g-root-tx_protein_m7d597sc3kem-stroke" data-item-order="0" transform="translate(399, 105)"></g><g id="g-root-tx_frische_v305i3sc3jlx-stroke" data-item-order="0" transform="translate(135, 141)"></g><g id="g-root-tx_geschmac_1d3n74rscomx3-stroke" data-item-order="0" transform="translate(15, 441)"></g><g id="g-root-tx_frische_1hjgp97scom4s-stroke" data-item-order="0" transform="translate(471, 405)"></g><g id="g-root-tx_unten_1uuaqjfsconpl-stroke" data-item-order="0" transform="translate(75, 291)"></g><g id="g-root-cu_1lyntgbsc50jx-stroke" data-item-order="0" transform="translate(327, 66)"><g id="cu_1lyntgbsc50jx-stroke" fill="none" stroke-linecap="round" stroke-linejoin="round" stroke-miterlimit="4" stroke="#969696" stroke-width="2" stroke-dasharray="5.0, 7.0"><g><path d="M 10 196L 10 172.8L 10 30.9C 10 19.357248 19.357248 10 30.899998 10L 31 10L 34 10"></path></g></g></g><g id="g-root-cu_qn6ndnsc6djd-stroke" data-item-order="0" transform="translate(375, 543)"><g id="cu_qn6ndnsc6djd-stroke" fill="none" stroke-linecap="round" stroke-linejoin="round" stroke-miterlimit="4" stroke="#969696" stroke-width="2" stroke-dasharray="5.0, 7.0"><g><path d="M 10 10L 10 22L 10 34L 19 34L 28 34"></path></g></g></g><g id="g-root-cu_zs6rx7sc50jx-stroke" data-item-order="0" transform="translate(447, 393)"><g id="cu_zs6rx7sc50jx-stroke" fill="none" stroke-linecap="round" stroke-linejoin="round" stroke-miterlimit="4" stroke="#969696" stroke-width="2" stroke-dasharray="5.0, 7.0"><g><path d="M 10 10L 10 17.5L 10 58C 10.000002 64.627417 15.372585 70 22.000002 69.999999L 22.1 70L 28 70"></path></g></g></g><g id="g-root-cu_18nts63sc4zr6-stroke" data-item-order="0" transform="translate(447, 393)"><g id="cu_18nts63sc4zr6-stroke" fill="none" stroke-linecap="round" stroke-linejoin="round" stroke-miterlimit="4" stroke="#969696" stroke-width="2" stroke-dasharray="5.0, 7.0"><g><path d="M 10 10L 10 22L 10 34L 19 34L 28 34"></path></g></g></g><g id="g-root-cu_1lyntgbsc50jr-stroke" data-item-order="0" transform="translate(327, 402)"><g id="cu_1lyntgbsc50jr-stroke" fill="none" stroke-linecap="round" stroke-linejoin="round" stroke-miterlimit="4" stroke="#969696" stroke-width="2" stroke-dasharray="5.0, 7.0"><g><path d="M 10 10L 10 24.3L 10 103.1C 10 114.642752 19.357249 124.000001 30.900001 124.000001L 31 124L 34 124"></path></g></g></g><g id="g-root-cu_1uuatp7sc4yyw-stroke" data-item-order="0" transform="translate(183, 216)"><g id="cu_1uuatp7sc4yyw-stroke" fill="none" stroke-linecap="round" stroke-linejoin="round" stroke-miterlimit="4" stroke="#969696" stroke-width="2" stroke-dasharray="5.0, 7.0"><g><path d="M 58 96L 55 96L 54.9 96C 43.357245 95.999996 33.999997 86.642747 33.999997 75.099997L 34 75L 34 30.9C 33.999998 19.357248 24.64275 10 13.1 10L 13 10L 10 10"></path></g></g></g><g id="g-root-cu_1lyntgbsc50jo-stroke" data-item-order="0" transform="translate(255, 402)"><g id="cu_1lyntgbsc50jo-stroke" fill="none" stroke-linecap="round" stroke-linejoin="round" stroke-miterlimit="4" stroke="#969696" stroke-width="2" stroke-dasharray="5.0, 7.0"><g><path d="M 34 10L 34 24.3L 34 103.1C 33.999998 114.642743 24.64275 123.999991 13.1 123.999991L 13 124L 10 124"></path></g></g></g><g id="g-root-cu_1qehbkrsc4zr7-stroke" data-item-order="0" transform="translate(375, 216)"><g id="cu_1qehbkrsc4zr7-stroke" fill="none" stroke-linecap="round" stroke-linejoin="round" stroke-miterlimit="4" stroke="#969696" stroke-width="2" stroke-dasharray="5.0, 7.0"><g><path d="M 10 96L 13 96L 13.1 96C 24.642748 96.000003 33.999998 86.642755 33.999998 75.100003L 34 75L 34 30.9C 33.999999 19.357249 43.357248 10.000001 54.899999 10.000002L 55 10L 58 10"></path></g></g></g><g id="g-root-cu_v305i3sc6cqy-stroke" data-item-order="0" transform="translate(141, 393)"><g id="cu_v305i3sc6cqy-stroke" fill="none" stroke-linecap="round" stroke-linejoin="round" stroke-miterlimit="4" stroke="#969696" stroke-width="2" stroke-dasharray="5.0, 7.0"><g><path d="M 28 10L 28 17.5L 28 58C 27.999999 64.627415 22.627416 69.999998 16 69.999998L 15.9 70L 10 70"></path></g></g></g><g id="g-root-cu_zs6rx7sc50jz-stroke" data-item-order="0" transform="translate(141, 393)"><g id="cu_zs6rx7sc50jz-stroke" fill="none" stroke-linecap="round" stroke-linejoin="round" stroke-miterlimit="4" stroke="#969696" stroke-width="2" stroke-dasharray="5.0, 7.0"><g><path d="M 28 10L 28 22L 28 34L 19 34L 10 34"></path></g></g></g><g id="g-root-tx_oben_4otot7scon40-stroke" data-item-order="0" transform="translate(75, 255)"></g><g id="g-root-cu_1hjgsezsc4y6g-stroke" data-item-order="0" transform="translate(141, 243)"><g id="cu_1hjgsezsc4y6g-stroke" fill="none" stroke-linecap="round" stroke-linejoin="round" stroke-miterlimit="4" stroke="#969696" stroke-width="2" stroke-dasharray="5.0, 7.0"><g><path d="M 28 10L 28 22L 28 34L 19 34L 10 34"></path></g></g></g><g id="g-root-cu_1d3naajsc4yyr-stroke" data-item-order="0" transform="translate(141, 243)"><g id="cu_1d3naajsc4yyr-stroke" fill="none" stroke-linecap="round" stroke-linejoin="round" stroke-miterlimit="4" stroke="#969696" stroke-width="2" stroke-dasharray="5.0, 7.0"><g><path d="M 28 10L 28 17.5L 28 58C 27.999999 64.627415 22.627416 69.999998 16 69.999998L 15.9 70L 10 70"></path></g></g></g><g id="g-root-tx_saftigke_1d3n74rscomx2-stroke" data-item-order="0" transform="translate(39, 405)"></g><g id="g-root-cu_1lyntgbsc50ju-stroke" data-item-order="0" transform="translate(255, 66)"><g id="cu_1lyntgbsc50ju-stroke" fill="none" stroke-linecap="round" stroke-linejoin="round" stroke-miterlimit="4" stroke="#969696" stroke-width="2" stroke-dasharray="5.0, 7.0"><g><path d="M 34 196L 34 172.8L 34 30.9C 33.999998 19.357248 24.64275 10 13.1 10L 13 10L 10 10"></path></g></g></g><g id="g-root-tx_geschmac_zs6orfscooi3-stroke" data-item-order="0" transform="translate(399, 591)"></g><g id="g-root-cu_1qehbkrsc4zra-stroke" data-item-order="0" transform="translate(375, 352)"><g id="cu_1qehbkrsc4zra-stroke" fill="none" stroke-linecap="round" stroke-linejoin="round" stroke-miterlimit="4" stroke="#969696" stroke-width="2" stroke-dasharray="5.0, 7.0"><g><path d="M 10 10L 13 10L 13.1 10C 16.47715 10.00393 20.199416 10.613028 24.1 11.8C 26.434787 12.503612 29.936878 14.343094 34 16.999999C 38.063122 19.656905 41.565214 21.496387 43.900001 22.199999C 47.800584 23.386973 51.52285 23.996071 54.900001 24.000001L 55 24L 58 24"></path></g></g></g><g id="g-root-cu_1qehbkrsc4zrd-stroke" data-item-order="0" transform="translate(183, 352)"><g id="cu_1qehbkrsc4zrd-stroke" fill="none" stroke-linecap="round" stroke-linejoin="round" stroke-miterlimit="4" stroke="#969696" stroke-width="2" stroke-dasharray="5.0, 7.0"><g><path d="M 58 10L 55 10L 54.9 10C 51.522851 10.003929 47.800585 10.613027 43.900001 11.799999C 41.565213 12.503613 38.063122 14.343095 34 17.000001C 29.936878 19.656907 26.434787 21.496389 24.1 22.200001C 20.199417 23.386972 16.477151 23.99607 13.100001 24L 13 24L 10 24"></path></g></g></g><g id="g-root-cu_1480a1nsc4zrh-stroke" data-item-order="0" transform="translate(447, 243)"><g id="cu_1480a1nsc4zrh-stroke" fill="none" stroke-linecap="round" stroke-linejoin="round" stroke-miterlimit="4" stroke="#969696" stroke-width="2" stroke-dasharray="5.0, 7.0"><g><path d="M 10 10L 10 22L 10 34L 19 34L 28 34"></path></g></g></g><g id="g-root-cu_18nts63sc4zr4-stroke" data-item-order="0" transform="translate(447, 243)"><g id="cu_18nts63sc4zr4-stroke" fill="none" stroke-linecap="round" stroke-linejoin="round" stroke-miterlimit="4" stroke="#969696" stroke-width="2" stroke-dasharray="5.0, 7.0"><g><path d="M 10 10L 10 17.5L 10 58C 10.000002 64.627417 15.372585 70 22.000002 69.999999L 22.1 70L 28 70"></path></g></g></g><g id="g-root-cu_m7d597sc6ebo-stroke" data-item-order="0" transform="translate(375, 543)"><g id="cu_m7d597sc6ebo-stroke" fill="none" stroke-linecap="round" stroke-linejoin="round" stroke-miterlimit="4" stroke="#969696" stroke-width="2" stroke-dasharray="5.0, 7.0"><g><path d="M 10 10L 10 17.5L 10 58C 10.000002 64.627417 15.372585 70 22.000002 69.999999L 22.1 70L 28 70"></path></g></g></g><g id="g-root-tx_geschmac_1uuaqjfsconpm-stroke" data-item-order="0" transform="translate(471, 255)"></g><g id="g-root-tx_feuchtig_zs6orfscooi2-stroke" data-item-order="0" transform="translate(399, 555)"></g><g id="g-root-tx_textur_1qeh8ezscoohv-stroke" data-item-order="0" transform="translate(471, 291)"></g><g id="g-root-tx_wrze_18ntp0bsconpd-stroke" data-item-order="0" transform="translate(147, 591)"></g><g id="g-root-tx_herzhaft_m7d597sc3ken-stroke" data-item-order="0" transform="translate(399, 141)"></g><g id="g-root-tx_whopperb_1uqjw0rsc6f42-stroke" data-item-order="1000000000" transform="translate(255, 330)"></g><g id="g-root-burg_1uqjw0rsc6f43-stroke" data-item-order="1000000000" transform="translate(279, 276)"><g id="burg_1uqjw0rsc6f43-stroke" fill="none" stroke-linecap="round" stroke-linejoin="round" stroke-miterlimit="4" stroke="#484848" stroke-width="2"><g><path d="M 27 43L 41 52.52C 41.591179 52.905293 42.2999 53.068298 43 52.980003C 43.671001 52.908169 44.287785 52.578259 44.720001 52.059998L 52 43M 38.82 51L 15 51C 12.790861 51 11 49.209141 11 47C 11 44.790859 12.790861 43 15 43L 53 43C 55.209141 43 57 44.790859 57 47C 57 49.209141 55.209141 51 53 51L 45.639999 51M 15 43C 12.790861 43.220917 10.820914 41.609138 10.6 39.400002C 10.379086 37.190865 11.990861 35.220917 14.200001 35M 53.799999 35.080002C 56.00914 35.300915 57.620914 37.270863 57.400002 39.480003C 57.179089 41.68914 55.209141 43.300915 53 43.080002M 15 51L 15 53C 15 55.209141 16.790861 57 19 57L 49 57C 51.209141 57 53 55.209141 53 53L 53 51M 53 29C 53 18.5 44.5 11 34 11C 23.5 11 15 18.5 15 29ZM 15 29C 13.393278 29.115198 12.115198 30.393278 12 32C 12 34.32 14.559999 36.66 18 34C 18.959438 35.87051 20.89805 37.033676 23 37C 25.151146 37.235809 27.195763 36.009041 28 34C 29.253651 36.073898 31.588694 37.241417 34 37L 34 37C 36.411308 37.241417 38.746353 36.073898 40 34C 40.804237 36.009041 42.848858 37.235809 45 37C 47.101952 37.033676 49.040562 35.87051 50 34C 53.439999 36.68 56 34.34 56 32C 55.8848 30.393278 54.60672 29.115198 53 29M 34 21.119999C 33.723858 21.119999 33.5 20.896141 33.5 20.619999C 33.5 20.343857 33.723858 20.119999 34 20.119999C 34.276142 20.119999 34.5 20.343857 34.5 20.619999C 34.5 20.896141 34.276142 21.119999 34 21.119999M 29 17.119999C 29.276142 17.119999 29.5 17.343857 29.5 17.619999C 29.5 17.896143 29.276142 18.119999 29 18.119999C 28.723858 18.119999 28.5 17.896143 28.5 17.619999C 28.5 17.343857 28.723858 17.119999 29 17.119999M 24 21.119999C 23.723858 21.119999 23.5 20.896141 23.5 20.619999C 23.5 20.343857 23.723858 20.119999 24 20.119999C 24.276142 20.119999 24.5 20.343857 24.5 20.619999C 24.5 20.896141 24.276142 21.119999 24 21.119999M 39 17.119999C 38.723858 17.119999 38.5 17.343857 38.5 17.619999C 38.5 17.896143 38.723858 18.119999 39 18.119999C 39.276142 18.119999 39.5 17.896143 39.5 17.619999C 39.5 17.343857 39.276142 17.119999 39 17.119999M 44 21.119999C 44.276142 21.119999 44.5 20.896141 44.5 20.619999C 44.5 20.343857 44.276142 20.119999 44 20.119999C 43.723858 20.119999 43.5 20.343857 43.5 20.619999C 43.5 20.896141 43.723858 21.119999 44 21.119999"></path></g></g></g><g id="g-root-tx_tomaten_4jtza3sc4y6n-stroke" data-item-order="1000000000" transform="translate(51, 354)"></g><g id="g-root-toma_40h5nsc4yyw-stroke" data-item-order="1000000000" transform="translate(141, 351)"><g id="toma_40h5nsc4yyw-stroke" fill="none" stroke-linecap="round" stroke-linejoin="round" stroke-miterlimit="4" stroke="#7f64ea" stroke-width="2"><g><path d="M 33.047501 18.02125C 36.225315 20.126837 38.132889 23.687923 38.125 27.5C 38.125 34.375 34.375 39.375 25 39.375C 15.625 39.375 11.875 34.375 11.875 27.5C 11.867482 23.688662 13.774456 20.128286 16.95125 18.022499M 33.477501 30.52125C 32.835663 33.089035 30.749331 35.042835 28.145 35.514999M 25 15L 25 10.625M 25 15C 20 13.125 15 16.875 15 16.875C 16.168755 17.97751 17.800201 18.443638 19.375 18.125C 17.5 20.625 18.125 22.5 18.125 22.5C 20.090792 22.03849 21.848745 20.939768 23.125 19.375C 23.114117 21.215488 23.781616 22.995487 25 24.375C 26.218384 22.995487 26.885883 21.215488 26.875 19.375C 28.269575 20.799297 29.983627 21.870581 31.875 22.5C 31.875 22.5 32.5 20.625 30.625 18.125C 32.199795 18.443638 33.831245 17.97751 34.999996 16.875C 35 16.875 30 13.125 25 15Z"></path></g></g></g><g id="g-root-rock_qofie3scalfm-stroke" data-item-order="1000000000" transform="translate(435, 351)"><g id="rock_qofie3scalfm-stroke" fill="none" stroke-linecap="round" stroke-linejoin="round" stroke-miterlimit="4" stroke="#e0cb15" stroke-width="2"><g><path d="M 18.192499 34.452499C 16.38125 34.228748 14.725 34.056252 14.1925 34.938751C 15.47 32.825001 8.38875 27.82625 11.3625 25.293749C 12.84875 24.0275 14.18 27.717499 15.7 26.471251C 17.825001 24.7325 11.27375 19.471251 14.775 17.254999C 17.1075 15.77875 18.397499 20.887501 19.85 19.6C 21.3025 18.3125 19.51 16.58 21.137501 13.885C 22.733749 11.2425 28.875 10.625 28.875 10.625C 29.667274 12.618608 30.096943 14.737744 30.143753 16.8825M 14.19875 34.942501C 13.625 36.375 13.09875 37.846252 12.625 39.375M 39.223751 18.352501C 39.223751 18.352501 39.98875 23.703751 38.077499 25.615C 36.12875 27.563749 34.279999 26.403749 33.491249 27.908749C 32.702499 29.41375 37.3125 29.4375 36.548752 31.730001C 35.401249 35.169998 29.54875 30.70875 28.52125 32.877499C 27.782499 34.431252 31.1975 34.78875 30.432501 36.317501C 28.903749 39.375 23.155001 34.53125 21.626249 36.059998C 23.155001 34.53125 18.202499 28.672501 21.26 27.143749C 22.78875 26.380001 23.14625 29.795 24.700001 29.055C 26.86875 28.022501 22.40625 22.18 25.846251 21.028749C 28.139999 20.26375 28.16375 24.875 29.668749 24.08625C 31.173748 23.297499 30.012501 21.44875 31.96125 19.5C 33.875 17.588751 39.223751 18.352501 39.223751 18.352501ZM 34.595001 23.69875C 27.439999 29.32375 22.858749 33.641251 19.375 39.375M 14.19125 34.938751C 14.19125 34.938751 19.36375 24.785 21.778751 22.782499"></path></g></g></g><g id="g-root-tx_salat_v490ijscaknd-stroke" data-item-order="1000000000" transform="translate(471, 354)"></g><g id="g-root-tx_mayo_1lrsicbsc97uz-stroke" data-item-order="1000000000" transform="translate(471, 204)"></g><g id="g-root-1_1lrsicbsc97v0-stroke" data-item-order="1000000000" transform="translate(435, 201)"><g id="1_1lrsicbsc97v0-stroke" fill="none" stroke-linecap="round" stroke-linejoin="round" stroke-miterlimit="4" stroke="#ba5de5" stroke-width="2"><g><path d="M 28.950001 15.625C 27.707394 14.001563 26.389278 12.437342 25 10.9375C 25 10.9375 14.6875 21.803749 14.6875 28.834999C 14.6875 35.866249 19.305 39.0625 25 39.0625C 30.695 39.0625 35.3125 35.866249 35.3125 28.834999C 35.3125 26.91 34.540001 24.6975 33.4175 22.5M 31.25 19.75C 30.904823 19.75 30.625 19.470179 30.625 19.125C 30.625 18.779821 30.904823 18.5 31.25 18.5M 31.25 19.75C 31.595177 19.75 31.875 19.470179 31.875 19.125C 31.875 18.779821 31.595177 18.5 31.25 18.5"></path></g></g></g><g id="g-root-buns_dgpxp7sc3ldx-stroke" data-item-order="1000000000" transform="translate(141, 201)"><g id="buns_dgpxp7sc3ldx-stroke" fill="none" stroke-linecap="round" stroke-linejoin="round" stroke-miterlimit="4" stroke="#de8431" stroke-width="2"><g><path d="M 26.875 30.599998L 26.875 31.25C 26.875 31.940355 26.315357 32.5 25.625 32.5L 14.375 32.5C 13.684644 32.5 13.125 31.940355 13.125 31.25L 13.125 30C 13.087998 28.830584 13.867 27.791916 15 27.5C 16.225979 27.166901 17.482258 26.957521 18.75 26.875C 19.1625 26.875 20 28.700001 20 28.700001C 20 28.700001 20.8375 26.8375 21.25 26.875C 21.992226 26.923508 22.730984 27.015331 23.462502 27.15M 12.6375 23.099998L 12.5 23.099998C 11.809644 23.099998 11.25 22.540356 11.25 21.849998L 11.25 20.599998C 11.232078 19.459845 11.987932 18.452038 13.0875 18.15C 14.313479 17.816902 15.569757 17.607521 16.8375 17.525C 17.25 17.525 18.0875 19.35 18.0875 19.35C 18.0875 19.35 18.9625 17.5 19.375 17.5C 20.642742 17.582521 21.899021 17.791901 23.125 18.125C 24.239468 18.41267 25.013508 19.424082 25 20.575001L 25 21.825001C 25 22.515356 24.440357 23.075001 23.75 23.075001L 22.362501 23.075001M 13.925 28.099998L 11.875 28.099998C 11.184644 28.099998 10.625 27.540356 10.625 26.849998L 10.625 25.599998C 10.611491 24.449081 11.385531 23.43767 12.5 23.150002C 13.725113 22.808453 14.981405 22.590693 16.25 22.5C 16.6625 22.5 17.5 24.325001 17.5 24.325001C 17.5 24.325001 18.3375 22.5 18.75 22.5C 20.017742 22.582521 21.274021 22.791901 22.5 23.125C 23.234337 23.32589 23.837116 23.850445 24.137501 24.550001M 38.612499 31.587502C 38.473846 31.889706 38.220501 32.124218 37.908508 32.239159C 37.596512 32.354107 37.251579 32.340015 36.950001 32.200001L 26.725 27.5C 26.102613 27.211294 25.82925 26.47489 26.112501 25.85L 26.65 24.674999C 27.119257 23.652023 28.214226 23.068724 29.325001 23.25C 30.605896 23.454288 31.862467 23.789373 33.075001 24.25C 33.475002 24.400002 33.450001 26.4375 33.450001 26.4375C 33.450001 26.4375 34.987499 25.1 35.350002 25.299999C 36.465397 25.928753 37.516285 26.66563 38.487503 27.500002C 39.351227 28.225056 39.622608 29.438602 39.150002 30.462502Z"></path></g></g></g><g id="g-root-tx_bun_hwjftnsc3klo-stroke" data-item-order="1000000000" transform="translate(87, 204)"></g><g id="g-root-tx_zwiebeln_hwjftnsc4yru-stroke" data-item-order="1000000000" transform="translate(123, 504)"></g><g id="g-root-1_4l2xgbsc50cr-stroke" data-item-order="1000000000" transform="translate(213, 501)"><g id="1_4l2xgbsc50cr-stroke" fill="none" stroke-linecap="round" stroke-linejoin="round" stroke-miterlimit="4" stroke="#3cc583" stroke-width="2"><g><path d="M 23.42625 25.293749C 25.612986 22.073902 27.319218 18.552795 28.491251 14.841249L 25.625 12.7825C 25.625 12.7825 21.875 23.407499 17.285 27.952501L 11.535 33.702499C 10.739901 34.490898 10.427378 35.64444 10.715756 36.726376C 11.004134 37.808315 11.849336 38.653275 12.931355 38.941349C 14.013375 39.229424 15.166828 38.916573 15.955 38.12125L 21.705 32.37125C 32.09375 21.983749 39.375 19.657499 39.375 19.657499L 39.267498 16.42625C 35.913338 16.99194 32.714241 18.25174 29.875 20.125C 32.084011 17.780472 34.066566 15.232485 35.796249 12.515L 32.84 10.9675C 32.201134 12.033426 31.503387 13.062938 30.75 14.05125M 17.285 27.953751C 17.023333 29.911249 17.965834 31.914999 20.112499 33.965"></path></g></g></g><g id="g-root-pizz_13zw0rfscj01u-stroke" data-item-order="1000000000" transform="translate(363, 501)"><g id="pizz_13zw0rfscj01u-stroke" fill="none" stroke-linecap="round" stroke-linejoin="round" stroke-miterlimit="4" stroke="#92bd39" stroke-width="2"><g><path d="M 27.5 11.45C 27.503155 11.223406 27.598 11.007762 27.762882 10.852301C 27.927765 10.696838 28.148611 10.614831 28.375 10.625C 31.663662 10.823586 34.805206 12.057451 37.349998 14.15C 37.543869 14.294856 37.663074 14.518596 37.675159 14.760304C 37.687244 15.002013 37.59095 15.236527 37.412498 15.4L 28.9125 24.075001C 28.683899 24.324295 28.321636 24.399765 28.012501 24.262501C 27.700573 24.138586 27.496944 23.835625 27.5 23.5ZM 35.587498 17.225C 33.427078 15.111019 30.522631 13.930387 27.5 13.9375M 35.762501 39.375C 39.2439 34.390999 38.850945 27.669376 34.8125 23.125C 34.676582 22.976686 34.488316 22.887035 34.287498 22.875C 34.087387 22.872553 33.894341 22.948875 33.75 23.0875L 27.137501 29.712502C 26.778049 30.067181 26.240498 30.170746 25.775 29.974998C 25.308218 29.783245 25.00252 29.329628 25 28.825001L 25 19.475C 25.000479 19.273733 24.917271 19.081324 24.77029 18.943827C 24.62331 18.80633 24.425789 18.736118 24.224998 18.75C 19.479549 19.031845 15.256554 21.855299 13.18259 26.132847C 11.108628 30.410395 11.507281 35.474648 14.224999 39.375M 20 27.487499C 20 28.177856 20.559643 28.737499 21.25 28.737499C 21.940357 28.737499 22.5 28.177856 22.5 27.487499C 22.5 26.797144 21.940357 26.237499 21.25 26.237499C 20.559643 26.237499 20 26.797144 20 27.487499M 18.75 33.75C 18.75 34.440353 19.309645 35 20 35C 20.690357 35 21.25 34.440353 21.25 33.75C 21.25 33.059647 20.690357 32.5 20 32.5C 19.309645 32.5 18.75 33.059647 18.75 33.75M 25 36.862499C 25 37.552856 25.559643 38.112499 26.25 38.112499C 26.940357 38.112499 27.5 37.552856 27.5 36.862499C 27.5 36.172146 26.940357 35.612499 26.25 35.612499C 25.559643 35.612499 25 36.172146 25 36.862499M 29.375 33.112499C 29.375 33.802856 29.934643 34.362499 30.625 34.362499C 31.315355 34.362499 31.875 33.802856 31.875 33.112499C 31.875 32.422146 31.315355 31.862499 30.625 31.862499C 29.934643 31.862499 29.375 32.422146 29.375 33.112499M 32.0625 24.799999C 34.01997 26.748102 35.084652 29.418983 35.004158 32.179474C 34.923664 34.939964 33.705154 37.544266 31.637499 39.375M 18.362499 39.375C 15.240097 36.621323 14.150388 32.221237 15.626797 28.328632C 17.103205 24.436029 20.836823 21.865362 25 21.875"></path></g></g></g><g id="g-root-tx_tomatens_13zw0rfscj01t-stroke" data-item-order="1000000000" transform="translate(399, 504)"></g><g id="g-root-tx_beef_dju7yzscoop9-stroke" data-item-order="1000000000" transform="translate(399, 54)"></g><g id="g-root-meat_94n6xnscombq-stroke" data-item-order="1000000000" transform="translate(363, 51)"><g id="meat_94n6xnscombq-stroke" fill="none" stroke-linecap="round" stroke-linejoin="round" stroke-miterlimit="4" stroke="#1eabda" stroke-width="2"><g><path d="M 15.357142 21.657143L 15.357142 19.642857C 15.357142 17.275923 17.275923 15.357142 19.642857 15.357142L 32.607143 15.357142C 33.660889 15.307737 34.56287 16.105278 34.642857 17.157143L 34.642857 25.342855C 34.56287 26.394722 33.660889 27.192265 32.607143 27.142859L 28.857143 27.142857M 38.92857 29.799999L 38.92857 35.971428C 38.92857 37.60461 37.60461 38.92857 35.971428 38.92857L 24.549999 38.92857C 23.227764 38.931778 22.064091 38.056839 21.699999 36.785713L 21.699999 36.785713C 21.344389 35.517921 20.188148 34.641983 18.871428 34.642857L 17.671429 34.642857C 14.026349 34.642857 11.071428 31.687935 11.071428 28.042856L 11.071428 19.771429M 34.642857 11.071428C 37.009792 11.071428 38.92857 12.990208 38.92857 15.357142L 38.92857 29.799999C 38.92857 31.433186 37.60461 32.757141 35.971428 32.757141L 27.142857 32.757141C 25.820621 32.760349 24.656948 31.885408 24.292856 30.614285L 24.292856 30.614285C 23.937246 29.346495 22.781006 28.470552 21.464285 28.471428L 19.771429 28.471428C 14.966551 28.471428 11.071428 24.576305 11.071428 19.771429C 11.071428 14.966551 14.966551 11.071428 19.771429 11.071428ZM 20.35 21.014284C 20.35 21.60602 20.829695 22.085714 21.421429 22.085714C 22.013163 22.085714 22.492857 21.60602 22.492857 21.014284C 22.492857 20.422552 22.013163 19.942856 21.421429 19.942856C 20.829695 19.942856 20.35 20.422552 20.35 21.014284"></path></g></g></g><g id="g-root-24px_940t0bsc50qu-stroke" data-item-order="1000000000" transform="translate(213, 51)"><g id="24px_940t0bsc50qu-stroke" fill="none" stroke-linecap="round" stroke-linejoin="round" stroke-miterlimit="4" stroke="#ba5de5" stroke-width="2"><g><path d="M 22.499874 20.499937L 22.5 20.624939M 27.5 20.375187L 27.500126 20.500187M 30.750124 24.999874L 30.625 24.999874M 19.249874 24.999874L 19.374874 24.999874M 27.5 29.25L 27.5 29.375M 22.499874 29.49975L 22.499874 29.37475M 24.9375 24.999874L 25.0625 24.999874M 24.464375 12.754C 24.803375 12.59325 25.196625 12.59325 25.535625 12.754L 25.77075 12.865525C 26.032875 12.989813 26.33 13.019088 26.611374 12.948313L 26.86375 12.884812C 27.227625 12.793275 27.613251 12.87 27.914375 13.093787L 28.123249 13.24905C 28.356125 13.422088 28.641874 13.508775 28.931499 13.494237L 29.1915 13.4812C 29.56625 13.462412 29.929501 13.6129 30.181124 13.891137L 30.355749 14.084163C 30.550375 14.2993 30.813749 14.440063 31.100626 14.482325L 31.358126 14.52025C 31.729374 14.574925 32.056374 14.7934 32.248875 15.115387L 32.382374 15.338775C 32.53125 15.587725 32.762123 15.777163 33.035378 15.874599L 33.280499 15.962037C 33.633877 16.088062 33.911873 16.366137 34.038002 16.7195L 34.125374 16.964649C 34.222874 17.237862 34.412251 17.468687 34.661251 17.617563L 34.884624 17.75115C 35.206627 17.943687 35.425125 18.270662 35.479752 18.641825L 35.517624 18.899324C 35.560001 19.1863 35.700752 19.44965 35.915874 19.644226L 36.108875 19.818825C 36.387123 20.070475 36.537624 20.4338 36.518749 20.808487L 36.505749 21.068438C 36.491249 21.35815 36.577877 21.6439 36.750999 21.876713L 36.90625 22.085613C 37.130001 22.386713 37.206749 22.772375 37.11525 23.13625L 37.05175 23.388626C 36.980873 23.67 37.010124 23.967125 37.134499 24.22925L 37.246002 24.464375C 37.40675 24.803375 37.40675 25.196625 37.246002 25.535625L 37.134499 25.77075C 37.010124 26.032875 36.980873 26.33 37.05175 26.611374L 37.11525 26.86375C 37.206749 27.227625 37.130001 27.613251 36.90625 27.914375L 36.750999 28.123249C 36.577877 28.356125 36.491249 28.641874 36.505749 28.931499L 36.518749 29.1915C 36.537624 29.56625 36.387123 29.929501 36.108875 30.181124L 35.915874 30.355749C 35.700752 30.550375 35.560001 30.813749 35.517624 31.100626L 35.479752 31.358126C 35.425125 31.729374 35.206627 32.056374 34.884624 32.248875L 34.661251 32.382374C 34.412251 32.53125 34.222874 32.762123 34.125374 33.035378L 34.038002 33.280499C 33.911873 33.633877 33.633877 33.911873 33.280499 34.038002L 33.035378 34.125374C 32.762123 34.222874 32.53125 34.412251 32.382374 34.661251L 32.248875 34.884624C 32.056374 35.206627 31.729374 35.425125 31.358126 35.479752L 31.100626 35.517624C 30.813749 35.560001 30.550375 35.700752 30.355749 35.915874L 30.181124 36.108875C 29.929501 36.387123 29.56625 36.537624 29.1915 36.518749L 28.931499 36.505749C 28.641874 36.491249 28.356125 36.577877 28.123249 36.750999L 27.914375 36.90625C 27.613251 37.130001 27.227625 37.206749 26.86375 37.11525L 26.611374 37.05175C 26.33 36.980873 26.032875 37.010124 25.77075 37.134499L 25.535625 37.246002C 25.196625 37.40675 24.803375 37.40675 24.464375 37.246002L 24.22925 37.134499C 23.967125 37.010124 23.67 36.980873 23.388626 37.05175L 23.13625 37.11525C 22.772375 37.206749 22.386713 37.130001 22.085613 36.90625L 21.876713 36.750999C 21.6439 36.577877 21.35815 36.491249 21.068438 36.505749L 20.808487 36.518749C 20.4338 36.537624 20.070475 36.387123 19.818825 36.108875L 19.644226 35.915874C 19.44965 35.700752 19.1863 35.560001 18.899324 35.517624L 18.641825 35.479752C 18.270662 35.425125 17.943687 35.206627 17.75115 34.884624L 17.617563 34.661251C 17.468687 34.412251 17.237862 34.222874 16.964649 34.125374L 16.7195 34.038002C 16.366137 33.911873 16.088062 33.633877 15.962037 33.280499L 15.874599 33.035378C 15.777163 32.762123 15.587725 32.53125 15.338775 32.382374L 15.115387 32.248875C 14.7934 32.056374 14.574925 31.729374 14.52025 31.358126L 14.482325 31.100626C 14.440063 30.813749 14.2993 30.550375 14.084163 30.355749L 13.891137 30.181124C 13.6129 29.929501 13.462412 29.56625 13.4812 29.1915L 13.494237 28.931499C 13.508775 28.641874 13.422088 28.356125 13.24905 28.123249L 13.093787 27.914375C 12.87 27.613251 12.793275 27.227625 12.884812 26.86375L 12.948313 26.611374C 13.019088 26.33 12.989813 26.032875 12.865525 25.77075L 12.754 25.535625C 12.59325 25.196625 12.59325 24.803375 12.754 24.464375L 12.865525 24.22925C 12.989813 23.967125 13.019088 23.67 12.948313 23.388626L 12.884812 23.13625C 12.793275 22.772375 12.87 22.386713 13.093787 22.085613L 13.24905 21.876713C 13.422088 21.6439 13.508775 21.35815 13.494237 21.068438L 13.4812 20.808487C 13.462412 20.4338 13.6129 20.070475 13.891137 19.818825L 14.084163 19.644226C 14.2993 19.44965 14.440063 19.1863 14.482325 18.899324L 14.52025 18.641825C 14.574925 18.270662 14.7934 17.943687 15.115387 17.75115L 15.338775 17.617563C 15.587725 17.468687 15.777163 17.237862 15.874599 16.964649L 15.962037 16.7195C 16.088062 16.366137 16.366137 16.088062 16.7195 15.962037L 16.964649 15.874599C 17.237862 15.777163 17.468687 15.587725 17.617563 15.338775L 17.75115 15.115387C 17.943687 14.7934 18.270662 14.574925 18.641825 14.52025L 18.899324 14.482325C 19.1863 14.440063 19.44965 14.2993 19.644226 14.084163L 19.818825 13.891137C 20.070475 13.6129 20.4338 13.462412 20.808487 13.4812L 21.068438 13.494237C 21.35815 13.508775 21.6439 13.422088 21.876713 13.24905L 22.085613 13.093787C 22.386713 12.87 22.772375 12.793275 23.13625 12.884812L 23.388626 12.948313C 23.67 13.019088 23.967125 12.989813 24.22925 12.865525L 24.464375 12.754Z"></path></g></g></g><g id="g-root-tx_gurken_djub4rsc4zyl-stroke" data-item-order="1000000000" transform="translate(135, 54)"></g></g></g></svg>